<svg width="1777" height="207" viewBox="0 0 1777 207" fill="none" xmlns="http://www.w3.org/2000/svg">
<path d="M2.86992 54.6H98.0399C98.0399 54.6 105.02 27.53 77.6699 28.37C77.6699 28.37 75.4399 13.3 57.5799 7.43999C39.7199 1.57999 24.0899 17.21 22.9699 23.07C22.9599 23.06 -7.46008 19.99 2.86992 54.6Z" stroke="#2895D2" stroke-opacity="0.6" stroke-miterlimit="10"/>
<path d="M1669.03 54.6H1774.63C1774.63 54.6 1782.37 24.56 1752.02 25.49C1752.02 25.49 1749.54 8.77005 1729.72 2.26005C1709.9 -4.24995 1692.56 13.1 1691.32 19.6C1691.32 19.6 1657.57 16.2 1669.03 54.6Z" stroke="#2895D2" stroke-opacity="0.6" stroke-miterlimit="10"/>
<path d="M226.64 180.18H308.2C308.2 180.18 314.18 156.98 290.74 157.7C290.74 157.7 288.83 144.78 273.52 139.76C258.21 134.74 244.82 148.13 243.86 153.15C243.86 153.16 217.79 150.53 226.64 180.18Z" stroke="#2895D2" stroke-opacity="0.6" stroke-miterlimit="10"/>
<path d="M1392.16 206.39H1477.93C1477.93 206.39 1484.22 181.99 1459.57 182.75C1459.57 182.75 1457.56 169.17 1441.46 163.89C1425.36 158.61 1411.28 172.69 1410.27 177.98C1410.27 177.97 1382.86 175.2 1392.16 206.39Z" stroke="#2895D2" stroke-opacity="0.6" stroke-miterlimit="10"/>
</svg>
